<svg width="416" height="585" viewBox="0 0 416 585" fill="none" xmlns="http://www.w3.org/2000/svg">
<path d="M223.608 438.146C235.108 438.146 250.679 451.435 257.108 469.146C263.537 486.857 257.854 509.002 259.108 523.146" stroke="#9DC8BE" stroke-width="10" stroke-linecap="round"/>
<path d="M194.108 438.146C180.294 438.146 161.588 451.435 153.865 469.146C146.142 486.857 152.969 509.002 151.463 523.146" stroke="#9DC8BE" stroke-width="10" stroke-linecap="round"/>
<circle cx="63.1082" cy="532.146" r="44" fill="#D9E5DD"/>
<circle cx="152.608" cy="547.646" r="27.5" fill="#D9E5DD"/>
<path d="M19.1082 532.146C19.1082 556.447 38.8077 576.146 63.1082 576.146H151.608C168.108 576.146 179.608 565.646 180.108 547.646C180.508 533.246 167.942 523.979 161.608 521.146C161.608 521.146 87.4088 488.146 63.1082 488.146C38.8077 488.146 19.1082 507.846 19.1082 532.146Z" stroke="#AFBDBA" stroke-width="5"/>
<path d="M63.1082 484.146C65.2433 484.146 67.6236 484.368 70.1581 484.749L69.5643 488.705H69.5633C73.3044 489.267 77.6228 490.23 82.3065 491.479L82.3075 491.477L83.3377 487.613C87.3668 488.687 91.6424 489.964 96.0311 491.372L94.8084 495.179C98.8462 496.475 102.998 497.889 107.161 499.365L108.499 495.595C112.632 497.061 116.773 498.587 120.822 500.12L119.405 503.86L119.403 503.863C123.586 505.447 127.676 507.04 131.561 508.585L131.563 508.583L133.041 504.866C137.385 506.593 141.474 508.259 145.155 509.783L143.626 513.479H143.625C148.461 515.481 152.592 517.238 155.671 518.562L155.672 518.561L157.253 514.886C159.135 515.696 160.627 516.346 161.65 516.794C162.162 517.017 162.556 517.191 162.823 517.309C162.957 517.368 163.059 517.413 163.128 517.444C163.162 517.459 163.188 517.471 163.206 517.479C163.215 517.483 163.222 517.486 163.226 517.488C163.228 517.489 163.23 517.489 163.231 517.49L163.233 517.491L163.242 517.495C165.558 518.531 168.454 520.239 171.333 522.563L168.82 525.674C172.794 528.882 176.813 533.455 178.814 539.25H178.817L182.598 537.944L182.786 538.508C183.7 541.346 184.198 544.439 184.106 547.757C184.047 549.908 183.843 551.979 183.498 553.964L179.557 553.28L179.556 553.279C178.86 557.288 177.539 560.825 175.683 563.845L175.685 563.846L179.094 565.94C176.747 569.76 173.646 572.885 169.937 575.221L167.806 571.837L167.805 571.836C164.735 573.769 161.182 575.075 157.248 575.707L157.249 575.71L157.883 579.659C155.859 579.984 153.763 580.146 151.608 580.146H144.233V576.146H129.483V580.146H114.733V576.146H99.9832V580.146H85.2332V576.146H70.4832V580.146H63.1082C59.9077 580.146 56.7765 579.833 53.745 579.233L54.5213 575.308V575.305C48.7488 574.163 43.3828 571.894 38.662 568.733L38.661 568.735L36.4354 572.059C31.2028 568.556 26.6983 564.052 23.1952 558.819L26.5194 556.593L26.5204 556.591C23.36 551.871 21.09 546.505 19.9481 540.732L19.9461 540.733L16.0213 541.509C15.4216 538.478 15.1082 535.347 15.1082 532.146C15.1082 528.946 15.4216 525.814 16.0213 522.783L19.9461 523.559H19.9481C21.0901 517.787 23.3599 512.421 26.5204 507.7L26.5194 507.699L23.1952 505.473C26.6983 500.241 31.2028 495.736 36.4354 492.233L38.661 495.557L38.662 495.558C43.3827 492.398 48.7489 490.128 54.5213 488.986V488.984L53.745 485.059C56.7765 484.459 59.9077 484.146 63.1082 484.146Z" stroke="#AFBDBA" stroke-width="8" stroke-dasharray="14 14"/>
<path d="M153.108 548.646L63.1082 533.146" stroke="#DDDEDD" stroke-width="12" stroke-linecap="square"/>
<circle cx="44" cy="44" r="44" transform="matrix(-1 0 0 1 392.118 488.146)" fill="#D9E5DD"/>
<circle cx="27.5" cy="27.5" r="27.5" transform="matrix(-1 0 0 1 286.118 520.146)" fill="#D9E5DD"/>
<path d="M392.118 532.146C392.118 556.447 372.418 576.146 348.118 576.146H259.618C243.118 576.146 231.618 565.646 231.118 547.646C230.718 533.246 243.284 523.979 249.618 521.146C249.618 521.146 323.817 488.146 348.118 488.146C372.418 488.146 392.118 507.846 392.118 532.146Z" stroke="#AFBDBA" stroke-width="5"/>
<path d="M348.118 484.146C345.982 484.146 343.602 484.368 341.068 484.749L341.662 488.705H341.663C337.921 489.267 333.603 490.23 328.919 491.479L328.918 491.477L327.888 487.613C323.859 488.687 319.583 489.964 315.195 491.372L316.417 495.179C312.38 496.475 308.228 497.889 304.065 499.365L302.727 495.595C298.594 497.061 294.453 498.587 290.404 500.12L291.821 503.86L291.823 503.863C287.639 505.447 283.55 507.04 279.664 508.585L279.663 508.583L278.185 504.866C273.841 506.593 269.752 508.259 266.071 509.783L267.6 513.479H267.601C262.765 515.481 258.634 517.238 255.555 518.562L255.554 518.561L253.973 514.886C252.091 515.696 250.598 516.346 249.576 516.794C249.064 517.017 248.67 517.191 248.403 517.309C248.269 517.368 248.167 517.413 248.098 517.444C248.064 517.459 248.038 517.471 248.02 517.479C248.011 517.483 248.004 517.486 247.999 517.488C247.997 517.489 247.996 517.489 247.995 517.49L247.993 517.491L247.984 517.495C245.668 518.531 242.772 520.239 239.893 522.563L242.406 525.674C238.431 528.882 234.413 533.455 232.412 539.25H232.409L228.627 537.944L228.44 538.508C227.526 541.346 227.027 544.439 227.12 547.757C227.179 549.908 227.383 551.979 227.728 553.964L231.668 553.28L231.669 553.279C232.366 557.288 233.687 560.825 235.542 563.845L235.54 563.846L232.132 565.94C234.479 569.76 237.58 572.885 241.288 575.221L243.42 571.837L243.421 571.836C246.49 573.769 250.044 575.075 253.978 575.707L253.977 575.71L253.343 579.659C255.367 579.984 257.463 580.146 259.618 580.146H266.993V576.146H281.743V580.146H296.493V576.146H311.243V580.146H325.993V576.146H340.743V580.146H348.118C351.318 580.146 354.449 579.833 357.481 579.233L356.704 575.308V575.305C362.477 574.163 367.843 571.894 372.564 568.733L372.565 568.735L374.79 572.059C380.023 568.556 384.527 564.052 388.031 558.819L384.706 556.593L384.705 556.591C387.866 551.871 390.136 546.505 391.278 540.732L391.28 540.733L395.204 541.509C395.804 538.478 396.118 535.347 396.118 532.146C396.118 528.946 395.804 525.814 395.204 522.783L391.28 523.559H391.278C390.136 517.787 387.866 512.421 384.705 507.7L384.706 507.699L388.031 505.473C384.527 500.241 380.023 495.736 374.79 492.233L372.565 495.557L372.564 495.558C367.843 492.398 362.477 490.128 356.704 488.986V488.984L357.481 485.059C354.449 484.459 351.318 484.146 348.118 484.146Z" stroke="#AFBDBA" stroke-width="8" stroke-dasharray="14 14"/>
<path d="M348.608 531.646L258.108 548.146" stroke="#DDDEDD" stroke-width="12" stroke-linecap="square"/>
<rect x="184.108" y="187.146" width="41" height="62" fill="#DDDEDD"/>
<path d="M105.699 247.441C104.322 236.121 113.157 226.146 124.56 226.146H279.656C291.06 226.146 299.894 236.121 298.517 247.441L276.858 425.441C275.697 434.977 267.603 442.146 257.997 442.146H146.22C136.614 442.146 128.519 434.977 127.359 425.441L105.699 247.441Z" fill="#9DC8BE"/>
<path d="M202.697 386.146L218.285 395.146V413.146L202.697 422.146L187.108 413.146V395.146L202.697 386.146Z" fill="#DDDEDD"/>
<rect x="199.697" y="395.146" width="6" height="18" fill="#494948"/>
<path d="M192.521 330.589L210.421 328.699L221.009 343.255L213.696 359.703L195.795 361.594L185.208 347.037L192.521 330.589Z" fill="#DDDEDD"/>
<rect x="195.388" y="339.632" width="6" height="18" transform="rotate(-36.0293 195.388 339.632)" fill="#494948"/>
<path d="M219.357 278.402L217.939 296.346L201.69 304.09L186.859 293.89L188.277 275.946L204.526 268.202L219.357 278.402Z" fill="#DDDEDD"/>
<rect x="209.942" y="279.566" width="6" height="18" transform="rotate(64.5179 209.942 279.566)" fill="#494948"/>
<path d="M216.108 247.706V229.146C216.108 227.489 217.451 226.146 219.108 226.146H254.828C257.969 226.146 258.998 230.36 256.211 231.808L220.491 250.369C218.494 251.406 216.108 249.957 216.108 247.706Z" fill="#5D837C"/>
<path d="M219.108 228.146H254.108" stroke="white" stroke-width="2" stroke-linecap="round" stroke-dasharray="0.5 5"/>
<path d="M194.108 247.706V229.146C194.108 227.489 192.765 226.146 191.108 226.146H155.388C152.248 226.146 151.218 230.36 154.005 231.808L189.725 250.369C191.722 251.406 194.108 249.957 194.108 247.706Z" fill="#5D837C"/>
<path d="M191.108 228.146H156.108" stroke="white" stroke-width="2" stroke-linecap="round" stroke-dasharray="0.5 5"/>
<rect x="83.1082" y="83.5142" width="31.3972" height="41.3121" rx="15.6986" fill="#DDDEDD"/>
<rect x="284.711" y="83.5142" width="31.3972" height="41.3121" rx="15.6986" fill="#DDDEDD"/>
<ellipse cx="199.195" cy="104.996" rx="102.041" ry="101.628" fill="white"/>
<path d="M178.548 82.9528C178.548 90.0258 172.629 95.7596 165.328 95.7596C158.027 95.7596 152.108 90.0258 152.108 82.9528C152.108 75.8799 158.027 70.1461 165.328 70.1461C172.629 70.1461 178.548 75.8799 178.548 82.9528Z" fill="#494948"/>
<path d="M253.736 82.9528C253.736 90.0258 247.817 95.7596 240.516 95.7596C233.215 95.7596 227.296 90.0258 227.296 82.9528C227.296 75.8799 233.215 70.1461 240.516 70.1461C247.817 70.1461 253.736 75.8799 253.736 82.9528Z" fill="#494948"/>
<path d="M199.376 3.14609C255.626 3.1463 301.226 48.7464 301.226 104.997C301.226 161.247 255.626 206.846 199.376 206.846C143.126 206.846 97.5256 161.247 97.5255 104.997C97.5255 48.7463 143.126 3.14609 199.376 3.14609ZM168.216 63.6051C157.428 63.6051 148.683 72.3506 148.683 83.1383C148.683 93.9259 157.428 102.671 168.216 102.671C179.004 102.671 187.749 93.926 187.749 83.1383C187.749 72.3505 179.004 63.6051 168.216 63.6051ZM245.418 63.6051C234.63 63.6051 225.885 72.3505 225.885 83.1383C225.885 93.926 234.63 102.671 245.418 102.671C256.206 102.671 264.95 93.9258 264.95 83.1383C264.95 72.3507 256.206 63.6053 245.418 63.6051Z" fill="#9DC8BE"/>
<path d="M269.319 61.5655C271.86 63.0716 272.699 66.3529 271.193 68.8938C269.687 71.4346 266.406 72.273 263.865 70.767L241.501 57.5116C239.601 56.3852 237.147 57.0126 236.021 58.913L231.302 66.8745C229.796 69.4153 226.515 70.2548 223.974 68.749C221.433 67.2429 220.594 63.9617 222.1 61.4207L231.585 45.4179C233.045 42.9563 236.169 42.0917 238.673 43.4094C238.754 43.4519 238.834 43.4969 238.914 43.544L269.319 61.5655Z" fill="#DDDEDD"/>
<path d="M237.046 44.7699L269.267 63.3727" stroke="white" stroke-width="2" stroke-linecap="round" stroke-dasharray="0.5 10"/>
<path d="M188.03 62.4077C190.72 63.6288 191.911 66.7994 190.689 69.489C189.468 72.1784 186.298 73.3682 183.609 72.1472L159.937 61.4001C157.925 60.4869 155.554 61.3772 154.641 63.3887L150.815 71.8158C149.594 74.5052 146.424 75.6961 143.735 74.4753C141.045 73.2542 139.855 70.0835 141.076 67.394L148.766 50.4554C149.987 47.7658 153.158 46.5752 155.847 47.7963L188.03 62.4077Z" fill="#DDDEDD"/>
<path d="M154.124 49.2179L188.175 64.2098" stroke="white" stroke-width="2" stroke-linecap="round" stroke-dasharray="0.5 10"/>
<path d="M176.893 155.136C173.644 150.769 178.982 134.45 171.323 131.462C159.719 126.636 160.183 143.184 159.951 159.044C159.719 174.903 180.375 188.464 192.212 178.351C204.048 168.238 180.143 159.503 176.893 155.136Z" fill="white"/>
<path d="M242.507 167.893C240.167 171.391 231.743 178.619 224.489 175.122C217.235 170.458 220.745 163.23 224.489 153.902C228.233 144.575 236.657 138.046 241.337 138.046C246.016 138.046 248.356 141.914 248.356 149.006C248.356 156.234 244.846 164.395 242.507 167.893Z" fill="white"/>
<path d="M232.214 132.443C230.343 127.323 207.655 118.943 193.153 122.435C188.007 123.183 180.756 130.116 179.82 134.072C178.885 138.029 173.739 144.081 168.593 143.848C163.447 143.615 162.044 136.866 162.512 132.443C162.98 128.021 167.19 122.435 175.844 113.823C184.498 105.211 206.485 104.746 224.028 110.332C241.57 115.918 243.208 124.762 246.482 130.116C249.757 135.469 249.289 145.245 240.635 145.477C231.98 145.71 234.086 137.564 232.214 132.443Z" fill="white"/>
<circle cx="129.791" cy="125.239" r="15.2855" fill="#DDDEDD"/>
<circle cx="276.036" cy="126.066" r="15.2855" fill="#DDDEDD"/>
<path d="M189.693 7.5C189.693 23.7913 184.016 40.7343 169.751 40.5481C155.487 40.3619 152.077 28.7563 151.686 21.9295" stroke="white" stroke-width="15" stroke-linecap="round"/>
<path d="M215.317 10.805C215.005 18.0456 221.574 35.97 232.907 37.1575C243.84 38.3033 248.044 27.8692 248.356 22.5148" stroke="white" stroke-width="15" stroke-linecap="round"/>
<path d="M109.108 251.146C100.942 249.979 85.0082 253.346 74.6082 264.146C61.6082 277.646 76.1082 309.146 59.1082 320.146C45.5082 328.946 32.7749 331.479 31.1082 332.646" stroke="#9DC8BE" stroke-width="10" stroke-linecap="round"/>
<path d="M5.10824 325.841L23.9544 319.146L34.499 348.829L15.6529 355.524" stroke="#9DC8BE" stroke-width="8" stroke-linecap="square"/>
<path d="M292.608 251.146C308.108 247.479 335.808 248.246 354.608 262.646C373.408 277.046 385.442 303.646 389.108 315.146" stroke="#9DC8BE" stroke-width="10" stroke-linecap="round"/>
<path d="M380.585 340.269L374.108 321.347L403.911 311.146L410.387 330.068" stroke="#9DC8BE" stroke-width="8" stroke-linecap="square"/>
</svg>
